<svg width="132" height="120" viewBox="0 0 132 120" fill="none" xmlns="http://www.w3.org/2000/svg">
<g clip-path="url(#clip0_7302_38826)">
<path d="M100.432 85.1859C100.432 84.8617 100.432 84.6264 100.432 84.3911C100.432 77.6081 100.437 70.8251 100.425 64.0421C100.424 63.2966 100.647 62.6844 101.175 62.1597C103.144 60.2029 105.104 58.2376 107.071 56.2783C112.15 51.2181 117.232 46.1615 122.31 41.1001C125.096 38.3232 127.889 35.5512 130.654 32.754C132.095 31.2965 132.339 29.7599 131.575 28.1752C130.129 25.1702 126.042 24.9037 123.906 26.797C122.845 27.7382 121.854 28.7598 120.849 29.7611C114.309 36.2799 107.771 42.7988 101.245 49.3297C100.534 50.0416 99.7356 50.3621 98.7229 50.3597C88.6762 50.3417 78.6296 50.3489 68.5818 50.3489C67.983 50.3489 67.6836 50.6559 67.6836 51.2697C67.6836 60.2341 67.6763 69.1972 67.6896 78.1616C67.692 80.0092 67.2471 81.7091 66.2513 83.2722C63.5193 87.5641 57.5055 88.7046 53.4232 85.6997C50.866 83.8172 49.6411 81.2601 49.6339 78.1303C49.6158 70.1264 49.6242 62.1237 49.6363 54.1198C49.6363 53.6888 49.7158 53.2386 49.8605 52.8328C50.1113 52.1281 50.6514 51.6923 51.3941 51.5434C52.8975 51.2421 54.0694 52.1761 54.1357 53.7692C54.1803 54.8473 54.1514 55.9302 54.1514 57.0107C54.1514 64.0542 54.1719 71.0965 54.1418 78.1399C54.1297 81.1004 56.3011 82.8316 58.4519 82.9084C61.12 83.0045 63.1757 81.0044 63.1769 78.3392C63.1805 66.0338 63.1793 53.7284 63.1781 41.423C63.1781 38.1924 60.7294 35.7253 57.4766 35.7229C44.7365 35.7145 31.9977 35.7145 19.2576 35.7229C16.006 35.7253 13.52 38.2332 13.5188 41.4758C13.5164 45.9574 13.5188 50.4402 13.52 54.9217C13.52 55.1306 13.52 55.3395 13.52 55.528C22.0077 52.0693 29.2392 53.4967 35.1095 60.6315C40.2443 68.5597 39.246 75.9358 33.0695 82.9181C33.3239 82.9181 33.5566 82.9181 33.7893 82.9181C37.1856 82.9181 40.5807 82.9169 43.977 82.9217C44.9041 82.9229 45.5684 83.3562 46.0097 84.169C46.4268 84.9397 46.3473 85.6805 45.8819 86.3756C45.3695 87.1391 44.6184 87.378 43.6997 87.3756C31.161 87.3588 18.6223 87.3912 6.08357 87.3456C2.69691 87.3336 -0.108624 89.8403 0.00229512 93.4023C0.0854846 96.1011 0.0191741 98.8046 0.0191741 101.506C0.0191741 105.788 0.00591205 110.069 0.0252024 114.351C0.0396701 117.389 2.41358 119.956 5.38068 119.969C15.3067 120.013 25.2328 119.987 35.1601 119.987C35.1999 119.987 35.2409 119.983 35.2807 119.981C38.56 119.777 40.5517 116.144 38.9326 113.313C37.9825 111.653 36.4899 110.967 34.6272 110.967C26.6495 110.966 18.6729 110.967 10.6952 110.967C10.4745 110.967 10.2527 110.976 10.0321 110.959C9.02413 110.881 8.36344 110.345 8.02465 109.408C7.69913 108.505 8.0138 107.767 8.64918 107.124C9.1664 106.601 9.82468 106.488 10.5288 106.488C18.5463 106.492 26.5638 106.492 34.5814 106.489C35.8582 106.489 37.0879 106.693 38.2924 107.139C42.3771 108.651 44.8752 113.392 43.731 117.551C43.5068 118.365 43.1825 119.151 42.9088 119.941H56.4228C56.4228 119.695 56.4228 119.497 56.4228 119.3C56.4228 116.319 56.4349 113.337 56.4168 110.356C56.4072 108.735 56.6555 107.181 57.35 105.699C58.6436 102.938 60.7571 101.126 63.6555 100.192C65.4133 99.627 67.2254 99.7374 69.0303 99.7338C69.3232 99.7338 69.615 99.7338 69.9586 99.7338C69.9586 99.4037 69.9586 99.1672 69.9586 98.9295C69.9586 96.2283 69.9658 93.5271 69.9586 90.8259C69.949 87.6193 72.6231 85.0922 75.6577 85.1774C76.5607 85.2027 77.4674 85.1546 78.3704 85.1918C78.878 85.2123 79.0226 85.0382 79.0166 84.5436C78.9937 82.4234 79.0022 80.3021 79.0094 78.1808C79.0118 77.5613 78.9973 76.937 79.0733 76.3248C79.2252 75.1098 80.4754 74.2682 81.6702 74.5312C82.8361 74.7881 83.4944 75.6609 83.4992 76.9995C83.5064 79.5001 83.5125 82.0021 83.492 84.5027C83.4884 84.9998 83.5932 85.2027 84.1527 85.1943C86.3626 85.1618 88.5738 85.169 90.7837 85.1907C91.2515 85.1954 91.4155 85.0706 91.4034 84.5868C91.3721 83.2866 91.3926 81.9864 91.3926 80.6851C91.3926 79.3837 91.3877 78.0835 91.3962 76.7834C91.4022 75.8109 91.8555 75.0762 92.7344 74.6836C93.5917 74.3007 94.4272 74.4387 95.1421 75.0738C95.6666 75.5396 95.8776 76.1363 95.8739 76.8386C95.8607 79.4197 95.8667 82.0008 95.8715 84.582C95.8715 84.8425 95.7823 85.1811 96.2405 85.1798C97.604 85.1762 98.9676 85.1798 100.435 85.1798L100.432 85.1859ZM128.633 119.971C128.633 119.69 128.633 119.474 128.633 119.257C128.633 116.217 128.634 113.176 128.633 110.136C128.63 106.673 126.165 104.218 122.678 104.218C104.077 104.215 85.4777 104.215 66.877 104.218C63.3927 104.218 60.9151 106.677 60.9078 110.134C60.9018 113.194 60.9066 116.254 60.9078 119.314C60.9078 119.527 60.9271 119.738 60.9392 119.971H128.633ZM50.7744 20.0344C50.7804 13.1806 45.2489 7.65574 38.3864 7.63893C31.5215 7.62213 25.9514 13.177 25.9381 19.9948C25.9249 26.7934 31.5034 32.3614 38.3129 32.3638C45.2103 32.3662 50.7684 26.8678 50.7744 20.0344ZM21.4628 82.9193C28.3337 82.912 33.9135 77.3452 33.864 70.447C33.8158 63.6352 28.2264 58.18 21.4314 58.1896C14.5894 58.1992 9.0374 63.7252 9.03498 70.5406C9.03257 77.3848 14.5966 82.9265 21.4628 82.9193ZM86.875 46.9502C93.6013 47.0379 99.3124 41.5118 99.2919 34.5908C99.2714 27.8042 93.875 22.2578 86.9015 22.2434C79.8799 22.229 74.4737 27.8234 74.4545 34.598C74.4352 41.4374 79.9992 46.9586 86.875 46.9502ZM115.045 99.7182C115.045 99.4793 115.045 99.3041 115.045 99.1276C115.045 96.448 115.045 93.7684 115.045 91.0888C115.045 89.9651 114.716 89.641 113.568 89.641C101.017 89.6398 88.4652 89.6386 75.9145 89.6386C74.8704 89.6386 74.4581 90.0432 74.4569 91.0816C74.4533 93.7816 74.4545 96.4804 74.4569 99.1804C74.4569 99.3533 74.481 99.5262 74.4955 99.7182H115.046H115.045ZM93.6833 19.1856C93.6604 18.9839 93.6664 18.9203 93.6447 18.8675C91.7555 14.2538 89.8626 9.64141 87.9758 5.02778C87.772 4.53077 87.4188 4.23183 86.8907 4.22463C86.3288 4.21743 85.9647 4.55478 85.7598 5.0578C85.2474 6.31235 84.7458 7.5705 84.231 8.82385C82.9892 11.8492 81.7414 14.8721 80.4996 17.8974C80.3404 18.284 80.2114 18.6826 80.0197 19.212C82.3297 18.2744 84.5638 17.7582 86.8979 17.7582C89.2272 17.7582 91.4516 18.296 93.6833 19.1868V19.1856ZM31.1706 4.78528C30.815 4.63521 30.5823 4.52476 30.3411 4.43832C27.5899 3.45629 24.8374 2.47426 22.0837 1.49943C20.6899 1.00601 19.3047 0.478982 17.8892 0.0551957C16.9705 -0.220926 16.2664 0.577426 16.5365 1.49583C16.604 1.72513 16.7041 1.94483 16.8017 2.16452C18.2401 5.38794 19.6784 8.61016 21.1204 11.8312C21.5098 12.7016 21.9137 13.5659 22.3658 14.554C24.0356 10.118 26.899 6.89941 31.1682 4.78648L31.1706 4.78528ZM109.39 85.1846C109.421 84.9962 109.448 84.9001 109.448 84.8029C109.451 81.8868 109.469 78.9695 109.429 76.0546C109.423 75.6296 109.212 75.1554 108.961 74.7977C108.419 74.0233 107.371 73.7376 106.497 74.0233C105.536 74.3379 104.922 75.1542 104.914 76.1903C104.899 77.7486 104.909 79.3069 104.909 80.8639C104.909 82.1425 104.897 83.4211 104.926 84.6984C104.93 84.8629 105.142 85.1594 105.264 85.1618C106.625 85.1954 107.986 85.1834 109.392 85.1834L109.39 85.1846Z" fill="white"/>
<path d="M100.433 85.1859C98.9653 85.1859 97.6018 85.1835 96.2382 85.1859C95.7788 85.1859 95.8692 84.8485 95.8692 84.588C95.8632 82.0069 95.8584 79.4257 95.8717 76.8446C95.8753 76.1423 95.6643 75.5456 95.1398 75.0798C94.4261 74.4447 93.5894 74.3067 92.7322 74.6897C91.8532 75.0834 91.4011 75.8169 91.3939 76.7894C91.3854 78.0895 91.3903 79.3909 91.3903 80.6911C91.3903 81.9913 91.371 83.2926 91.4011 84.5928C91.4132 85.0766 91.2492 85.2015 90.7814 85.1967C88.5715 85.1751 86.3603 85.1667 84.1504 85.2003C83.591 85.2087 83.4861 85.0058 83.4897 84.5088C83.5102 82.0081 83.5042 79.5062 83.4969 77.0055C83.4933 75.6681 82.835 74.7941 81.668 74.5372C80.4744 74.2743 79.2229 75.1158 79.071 76.3308C78.995 76.943 79.0083 77.5673 79.0071 78.1868C78.9999 80.3081 78.9914 82.4283 79.0143 84.5496C79.0191 85.043 78.8757 85.2183 78.3681 85.1979C77.4651 85.1607 76.5596 85.2099 75.6554 85.1835C72.6208 85.0982 69.9467 87.6241 69.9563 90.832C69.9648 93.5331 69.9575 96.2343 69.9563 98.9355C69.9563 99.172 69.9563 99.4097 69.9563 99.7399C69.6127 99.7399 69.3209 99.7399 69.028 99.7399C67.2231 99.7435 65.411 99.6318 63.6532 100.198C60.7548 101.132 58.6413 102.944 57.3477 105.705C56.6532 107.187 56.4049 108.741 56.4145 110.362C56.4326 113.343 56.4193 116.325 56.4206 119.306C56.4206 119.503 56.4206 119.701 56.4206 119.947H42.9065C43.1814 119.157 43.5045 118.371 43.7287 117.557C44.8729 113.398 42.3748 108.657 38.2901 107.145C37.0856 106.699 35.8559 106.494 34.5791 106.495C26.5616 106.498 18.544 106.498 10.5265 106.494C9.82118 106.494 9.16411 106.607 8.64688 107.13C8.01151 107.773 7.69684 108.511 8.02236 109.414C8.36115 110.351 9.02063 110.887 10.0298 110.965C10.2492 110.982 10.471 110.973 10.6929 110.973C18.6706 110.973 26.6472 110.973 34.6249 110.973C36.4876 110.973 37.9802 111.659 38.9303 113.319C40.5494 116.15 38.5577 119.783 35.2784 119.987C35.2386 119.989 35.1976 119.993 35.1578 119.993C25.2317 119.993 15.3045 120.019 5.37838 119.975C2.41129 119.962 0.037376 117.395 0.0229082 114.358C0.00361791 110.075 0.01688 105.794 0.01688 101.512C0.01688 98.8107 0.0831905 96.1071 9.7882e-07 93.4083C-0.109713 89.8451 2.69462 87.3384 6.08127 87.3516C18.62 87.3972 31.1587 87.3648 43.6974 87.3816C44.6161 87.3828 45.3672 87.1451 45.8796 86.3816C46.3462 85.6865 46.4258 84.9458 46.0074 84.175C45.5673 83.3611 44.903 82.9289 43.9747 82.9277C40.5784 82.9229 37.1833 82.9241 33.787 82.9241C33.5543 82.9241 33.3228 82.9241 33.0672 82.9241C39.2449 75.9418 40.242 68.5658 35.1072 60.6375C29.2369 53.5027 22.0066 52.0753 13.5177 55.534C13.5177 55.3455 13.5177 55.1366 13.5177 54.9278C13.5177 50.4462 13.5141 45.9634 13.5165 41.4818C13.5177 38.2392 16.0049 35.7313 19.2554 35.7289C31.9954 35.7205 44.7342 35.7205 57.4743 35.7289C60.7259 35.7313 63.1746 38.1984 63.1758 41.429C63.177 53.7344 63.1782 66.0398 63.1746 78.3453C63.1746 81.0104 61.1177 83.0093 58.4496 82.9145C56.2988 82.8376 54.1274 81.1065 54.1395 78.146C54.1696 71.1025 54.1491 64.0602 54.1491 57.0167C54.1491 55.9362 54.1793 54.8545 54.1334 53.7752C54.0671 52.1821 52.894 51.2481 51.3918 51.5495C50.6503 51.6983 50.1102 52.1341 49.8582 52.8388C49.7136 53.2446 49.6352 53.6948 49.634 54.1258C49.6207 62.1297 49.6123 70.1324 49.6316 78.1364C49.6388 81.2661 50.8637 83.8233 53.4209 85.7057C57.502 88.7106 63.517 87.5701 66.249 83.2782C67.2436 81.7151 67.6897 80.0152 67.6873 78.1676C67.6752 69.2032 67.6813 60.2401 67.6813 51.2757C67.6813 50.6619 67.9807 50.3549 68.5795 50.3549C78.6261 50.3549 88.674 50.3477 98.7206 50.3657C99.7333 50.3681 100.531 50.0464 101.243 49.3357C107.769 42.8048 114.307 36.286 120.847 29.7671C121.852 28.7646 122.842 27.743 123.904 26.803C126.039 24.9097 130.126 25.1763 131.573 28.1812C132.336 29.7659 132.094 31.3026 130.652 32.76C127.886 35.5572 125.094 38.328 122.308 41.1061C117.23 46.1675 112.148 51.2241 107.068 56.2843C105.102 58.2436 103.142 60.2089 101.173 62.1657C100.645 62.6904 100.422 63.3026 100.423 64.0482C100.435 70.8312 100.43 77.6141 100.43 84.3971C100.43 84.6324 100.43 84.8689 100.43 85.1919L100.433 85.1859Z" fill="#ECBB32"/>
<path d="M128.633 119.971H60.9393C60.9285 119.738 60.908 119.526 60.908 119.315C60.9056 116.254 60.9019 113.194 60.908 110.134C60.9152 106.677 63.3916 104.219 66.8771 104.218C85.4778 104.215 104.077 104.215 122.678 104.218C126.165 104.218 128.63 106.674 128.633 110.136C128.635 113.176 128.633 116.217 128.633 119.257C128.633 119.473 128.633 119.689 128.633 119.971Z" fill="#ECBB32"/>
<path d="M50.7745 20.0344C50.7685 26.8678 45.2105 32.3662 38.313 32.3638C31.5035 32.3614 25.925 26.7934 25.9383 19.9948C25.9515 13.177 31.5216 7.62334 38.3865 7.63895C45.2491 7.65576 50.7818 13.1806 50.7745 20.0344Z" fill="#ECBB32"/>
<path d="M21.4641 82.9193C14.5968 82.9265 9.0327 77.3848 9.03632 70.5406C9.03873 63.7252 14.5907 58.1992 21.4328 58.1896C28.2278 58.18 33.8171 63.6352 33.8654 70.447C33.9148 77.3452 28.3351 82.9121 21.4641 82.9193Z" fill="#ECBB32"/>
<path d="M86.8764 46.9503C80.0006 46.9587 74.4365 41.4375 74.4558 34.5981C74.4751 27.8247 79.8812 22.229 86.9029 22.2434C93.8763 22.2578 99.2728 27.8043 99.2933 34.5909C99.3138 41.5119 93.6026 47.0367 86.8764 46.9503Z" fill="#ECBB32"/>
<path d="M115.046 99.7183H74.4956C74.4811 99.5274 74.457 99.3546 74.457 99.1805C74.4546 96.4805 74.4534 93.7817 74.457 91.0817C74.4582 90.0433 74.8705 89.6387 75.9146 89.6387C88.4654 89.6387 101.017 89.6387 113.568 89.6411C114.716 89.6411 115.044 89.9652 115.045 91.0889C115.045 93.7685 115.045 96.4481 115.045 99.1277C115.045 99.3041 115.045 99.4806 115.045 99.7183H115.046Z" fill="#ECBB32"/>
<path d="M93.6834 19.1857C91.4518 18.2961 89.2273 17.7571 86.898 17.7571C84.5639 17.7571 82.3299 18.2733 80.0198 19.2109C80.2115 18.6815 80.3417 18.2829 80.4997 17.8963C81.7403 14.871 82.9893 11.8481 84.2312 8.82272C84.746 7.56937 85.2463 6.31002 85.7599 5.05667C85.9649 4.55365 86.3302 4.2163 86.8908 4.2235C87.4189 4.2307 87.7733 4.52964 87.9759 5.02666C89.8627 9.64149 91.7556 14.2527 93.6448 18.8663C93.6665 18.9192 93.6605 18.9828 93.6834 19.1845V19.1857Z" fill="#ECBB32"/>
<path d="M31.1707 4.78532C26.9016 6.89945 24.0382 10.1181 22.3683 14.5528C21.9162 13.5648 21.5123 12.7004 21.1229 11.83C19.681 8.609 18.2414 5.38679 16.8043 2.16337C16.7066 1.94487 16.6066 1.72397 16.539 1.49467C16.269 0.577469 16.9731 -0.220882 17.8918 0.0540386C19.3072 0.479026 20.6913 1.00486 22.0862 1.49827C24.8399 2.4731 27.5924 3.45514 30.3437 4.43717C30.5848 4.52361 30.8175 4.63405 31.1732 4.78412L31.1707 4.78532Z" fill="#ECBB32"/>
<path d="M109.389 85.1847C107.985 85.1847 106.622 85.1967 105.261 85.1631C105.139 85.1607 104.927 84.863 104.924 84.6997C104.895 83.4224 104.907 82.1438 104.907 80.8652C104.907 79.3069 104.897 77.7487 104.912 76.1916C104.921 75.1555 105.534 74.3392 106.495 74.0246C107.369 73.7389 108.415 74.0246 108.959 74.799C109.21 75.1567 109.421 75.6309 109.427 76.0559C109.467 78.972 109.448 81.8881 109.446 84.8042C109.446 84.9002 109.417 84.9974 109.388 85.1859L109.389 85.1847Z" fill="#ECBB32"/>
</g>
<defs>
<clipPath id="clip0_7302_38826">
<rect width="132" height="120" fill="white"/>
</clipPath>
</defs>
</svg>
